<mxfile host="app.diagrams.net" agent="Mozilla/5.0 (Windows NT 10.0; Win64; x64) AppleWebKit/537.36 (KHTML, like Gecko) Chrome/138.0.0.0 YaBrowser/25.8.0.0 Safari/537.36" version="28.2.3">
  <diagram id="C5RBs43oDa-KdzZeNtuy" name="Page-1">
    <mxGraphModel dx="3177" dy="2463" grid="1" gridSize="10" guides="1" tooltips="1" connect="1" arrows="1" fold="1" page="1" pageScale="1" pageWidth="827" pageHeight="1169" math="0" shadow="0">
      <root>
        <mxCell id="WIyWlLk6GJQsqaUBKTNV-0" />
        <mxCell id="WIyWlLk6GJQsqaUBKTNV-1" parent="WIyWlLk6GJQsqaUBKTNV-0" />
        <mxCell id="MaV1uvMVQuwauOUnLtSE-0" value="Customer" style="swimlane;fontStyle=1;align=center;verticalAlign=top;childLayout=stackLayout;horizontal=1;startSize=26;horizontalStack=0;resizeParent=1;resizeParentMax=0;resizeLast=0;collapsible=1;marginBottom=0;whiteSpace=wrap;html=1;" parent="WIyWlLk6GJQsqaUBKTNV-1" vertex="1">
          <mxGeometry x="-170" width="200" height="350" as="geometry" />
        </mxCell>
        <mxCell id="MaV1uvMVQuwauOUnLtSE-1" value="- _id: int" style="text;strokeColor=none;fillColor=none;align=left;verticalAlign=top;spacingLeft=4;spacingRight=4;overflow=hidden;rotatable=0;points=[[0,0.5],[1,0.5]];portConstraint=eastwest;whiteSpace=wrap;html=1;" parent="MaV1uvMVQuwauOUnLtSE-0" vertex="1">
          <mxGeometry y="26" width="200" height="26" as="geometry" />
        </mxCell>
        <mxCell id="MaV1uvMVQuwauOUnLtSE-5" value="- _fullname: string" style="text;strokeColor=none;fillColor=none;align=left;verticalAlign=top;spacingLeft=4;spacingRight=4;overflow=hidden;rotatable=0;points=[[0,0.5],[1,0.5]];portConstraint=eastwest;whiteSpace=wrap;html=1;" parent="MaV1uvMVQuwauOUnLtSE-0" vertex="1">
          <mxGeometry y="52" width="200" height="26" as="geometry" />
        </mxCell>
        <mxCell id="MaV1uvMVQuwauOUnLtSE-37" value="- _addres: type" style="text;strokeColor=none;fillColor=none;align=left;verticalAlign=top;spacingLeft=4;spacingRight=4;overflow=hidden;rotatable=0;points=[[0,0.5],[1,0.5]];portConstraint=eastwest;whiteSpace=wrap;html=1;" parent="MaV1uvMVQuwauOUnLtSE-0" vertex="1">
          <mxGeometry y="78" width="200" height="26" as="geometry" />
        </mxCell>
        <mxCell id="MaV1uvMVQuwauOUnLtSE-39" value="+ Id: int" style="text;strokeColor=none;fillColor=none;align=left;verticalAlign=top;spacingLeft=4;spacingRight=4;overflow=hidden;rotatable=0;points=[[0,0.5],[1,0.5]];portConstraint=eastwest;whiteSpace=wrap;html=1;" parent="MaV1uvMVQuwauOUnLtSE-0" vertex="1">
          <mxGeometry y="104" width="200" height="26" as="geometry" />
        </mxCell>
        <mxCell id="MaV1uvMVQuwauOUnLtSE-40" value="+ Fullname: string" style="text;strokeColor=none;fillColor=none;align=left;verticalAlign=top;spacingLeft=4;spacingRight=4;overflow=hidden;rotatable=0;points=[[0,0.5],[1,0.5]];portConstraint=eastwest;whiteSpace=wrap;html=1;" parent="MaV1uvMVQuwauOUnLtSE-0" vertex="1">
          <mxGeometry y="130" width="200" height="26" as="geometry" />
        </mxCell>
        <mxCell id="MaV1uvMVQuwauOUnLtSE-6" value="+ Addres: type" style="text;strokeColor=none;fillColor=none;align=left;verticalAlign=top;spacingLeft=4;spacingRight=4;overflow=hidden;rotatable=0;points=[[0,0.5],[1,0.5]];portConstraint=eastwest;whiteSpace=wrap;html=1;" parent="MaV1uvMVQuwauOUnLtSE-0" vertex="1">
          <mxGeometry y="156" width="200" height="26" as="geometry" />
        </mxCell>
        <mxCell id="MaV1uvMVQuwauOUnLtSE-2" value="" style="line;strokeWidth=1;fillColor=none;align=left;verticalAlign=middle;spacingTop=-1;spacingLeft=3;spacingRight=3;rotatable=0;labelPosition=right;points=[];portConstraint=eastwest;strokeColor=inherit;" parent="MaV1uvMVQuwauOUnLtSE-0" vertex="1">
          <mxGeometry y="182" width="200" height="8" as="geometry" />
        </mxCell>
        <mxCell id="MaV1uvMVQuwauOUnLtSE-3" value="+ Customer(): Customer" style="text;strokeColor=none;fillColor=none;align=left;verticalAlign=top;spacingLeft=4;spacingRight=4;overflow=hidden;rotatable=0;points=[[0,0.5],[1,0.5]];portConstraint=eastwest;whiteSpace=wrap;html=1;" parent="MaV1uvMVQuwauOUnLtSE-0" vertex="1">
          <mxGeometry y="190" width="200" height="26" as="geometry" />
        </mxCell>
        <mxCell id="MaV1uvMVQuwauOUnLtSE-42" value="+ Customer(in string fullname, in string address): Customer" style="text;strokeColor=none;fillColor=none;align=left;verticalAlign=top;spacingLeft=4;spacingRight=4;overflow=hidden;rotatable=0;points=[[0,0.5],[1,0.5]];portConstraint=eastwest;whiteSpace=wrap;html=1;" parent="MaV1uvMVQuwauOUnLtSE-0" vertex="1">
          <mxGeometry y="216" width="200" height="54" as="geometry" />
        </mxCell>
        <mxCell id="MaV1uvMVQuwauOUnLtSE-43" value="+ Customer(in int id, in string fullname, in string address): Customer" style="text;strokeColor=none;fillColor=none;align=left;verticalAlign=top;spacingLeft=4;spacingRight=4;overflow=hidden;rotatable=0;points=[[0,0.5],[1,0.5]];portConstraint=eastwest;whiteSpace=wrap;html=1;" parent="MaV1uvMVQuwauOUnLtSE-0" vertex="1">
          <mxGeometry y="270" width="200" height="54" as="geometry" />
        </mxCell>
        <mxCell id="MaV1uvMVQuwauOUnLtSE-41" value="+ ToString(): string" style="text;strokeColor=none;fillColor=none;align=left;verticalAlign=top;spacingLeft=4;spacingRight=4;overflow=hidden;rotatable=0;points=[[0,0.5],[1,0.5]];portConstraint=eastwest;whiteSpace=wrap;html=1;" parent="MaV1uvMVQuwauOUnLtSE-0" vertex="1">
          <mxGeometry y="324" width="200" height="26" as="geometry" />
        </mxCell>
        <mxCell id="MaV1uvMVQuwauOUnLtSE-7" value="Item" style="swimlane;fontStyle=1;align=center;verticalAlign=top;childLayout=stackLayout;horizontal=1;startSize=26;horizontalStack=0;resizeParent=1;resizeParentMax=0;resizeLast=0;collapsible=1;marginBottom=0;whiteSpace=wrap;html=1;" parent="WIyWlLk6GJQsqaUBKTNV-1" vertex="1">
          <mxGeometry x="570" width="190" height="370" as="geometry" />
        </mxCell>
        <mxCell id="MaV1uvMVQuwauOUnLtSE-44" value="- _id: int" style="text;strokeColor=none;fillColor=none;align=left;verticalAlign=top;spacingLeft=4;spacingRight=4;overflow=hidden;rotatable=0;points=[[0,0.5],[1,0.5]];portConstraint=eastwest;whiteSpace=wrap;html=1;" parent="MaV1uvMVQuwauOUnLtSE-7" vertex="1">
          <mxGeometry y="26" width="190" height="26" as="geometry" />
        </mxCell>
        <mxCell id="MaV1uvMVQuwauOUnLtSE-46" value="- _name: string" style="text;strokeColor=none;fillColor=none;align=left;verticalAlign=top;spacingLeft=4;spacingRight=4;overflow=hidden;rotatable=0;points=[[0,0.5],[1,0.5]];portConstraint=eastwest;whiteSpace=wrap;html=1;" parent="MaV1uvMVQuwauOUnLtSE-7" vertex="1">
          <mxGeometry y="52" width="190" height="26" as="geometry" />
        </mxCell>
        <mxCell id="MaV1uvMVQuwauOUnLtSE-47" value="- _info: string" style="text;strokeColor=none;fillColor=none;align=left;verticalAlign=top;spacingLeft=4;spacingRight=4;overflow=hidden;rotatable=0;points=[[0,0.5],[1,0.5]];portConstraint=eastwest;whiteSpace=wrap;html=1;" parent="MaV1uvMVQuwauOUnLtSE-7" vertex="1">
          <mxGeometry y="78" width="190" height="26" as="geometry" />
        </mxCell>
        <mxCell id="MaV1uvMVQuwauOUnLtSE-45" value="- _cost: double" style="text;strokeColor=none;fillColor=none;align=left;verticalAlign=top;spacingLeft=4;spacingRight=4;overflow=hidden;rotatable=0;points=[[0,0.5],[1,0.5]];portConstraint=eastwest;whiteSpace=wrap;html=1;" parent="MaV1uvMVQuwauOUnLtSE-7" vertex="1">
          <mxGeometry y="104" width="190" height="26" as="geometry" />
        </mxCell>
        <mxCell id="MaV1uvMVQuwauOUnLtSE-48" value="+ Id: int" style="text;strokeColor=none;fillColor=none;align=left;verticalAlign=top;spacingLeft=4;spacingRight=4;overflow=hidden;rotatable=0;points=[[0,0.5],[1,0.5]];portConstraint=eastwest;whiteSpace=wrap;html=1;" parent="MaV1uvMVQuwauOUnLtSE-7" vertex="1">
          <mxGeometry y="130" width="190" height="26" as="geometry" />
        </mxCell>
        <mxCell id="MaV1uvMVQuwauOUnLtSE-49" value="+ Name: string" style="text;strokeColor=none;fillColor=none;align=left;verticalAlign=top;spacingLeft=4;spacingRight=4;overflow=hidden;rotatable=0;points=[[0,0.5],[1,0.5]];portConstraint=eastwest;whiteSpace=wrap;html=1;" parent="MaV1uvMVQuwauOUnLtSE-7" vertex="1">
          <mxGeometry y="156" width="190" height="26" as="geometry" />
        </mxCell>
        <mxCell id="MaV1uvMVQuwauOUnLtSE-50" value="+ Information: string" style="text;strokeColor=none;fillColor=none;align=left;verticalAlign=top;spacingLeft=4;spacingRight=4;overflow=hidden;rotatable=0;points=[[0,0.5],[1,0.5]];portConstraint=eastwest;whiteSpace=wrap;html=1;" parent="MaV1uvMVQuwauOUnLtSE-7" vertex="1">
          <mxGeometry y="182" width="190" height="26" as="geometry" />
        </mxCell>
        <mxCell id="MaV1uvMVQuwauOUnLtSE-51" value="+ Cost: double" style="text;strokeColor=none;fillColor=none;align=left;verticalAlign=top;spacingLeft=4;spacingRight=4;overflow=hidden;rotatable=0;points=[[0,0.5],[1,0.5]];portConstraint=eastwest;whiteSpace=wrap;html=1;" parent="MaV1uvMVQuwauOUnLtSE-7" vertex="1">
          <mxGeometry y="208" width="190" height="26" as="geometry" />
        </mxCell>
        <mxCell id="MaV1uvMVQuwauOUnLtSE-11" value="" style="line;strokeWidth=1;fillColor=none;align=left;verticalAlign=middle;spacingTop=-1;spacingLeft=3;spacingRight=3;rotatable=0;labelPosition=right;points=[];portConstraint=eastwest;strokeColor=inherit;" parent="MaV1uvMVQuwauOUnLtSE-7" vertex="1">
          <mxGeometry y="234" width="190" height="8" as="geometry" />
        </mxCell>
        <mxCell id="MaV1uvMVQuwauOUnLtSE-56" value="+ Item(in string name, in string info, in double cost): Item" style="text;strokeColor=none;fillColor=none;align=left;verticalAlign=top;spacingLeft=4;spacingRight=4;overflow=hidden;rotatable=0;points=[[0,0.5],[1,0.5]];portConstraint=eastwest;whiteSpace=wrap;html=1;" parent="MaV1uvMVQuwauOUnLtSE-7" vertex="1">
          <mxGeometry y="242" width="190" height="38" as="geometry" />
        </mxCell>
        <mxCell id="MaV1uvMVQuwauOUnLtSE-57" value="+ Item(in int id, in string name, in string info, in double cost): Item" style="text;strokeColor=none;fillColor=none;align=left;verticalAlign=top;spacingLeft=4;spacingRight=4;overflow=hidden;rotatable=0;points=[[0,0.5],[1,0.5]];portConstraint=eastwest;whiteSpace=wrap;html=1;" parent="MaV1uvMVQuwauOUnLtSE-7" vertex="1">
          <mxGeometry y="280" width="190" height="38" as="geometry" />
        </mxCell>
        <mxCell id="MaV1uvMVQuwauOUnLtSE-55" value="+ Item(): Item" style="text;strokeColor=none;fillColor=none;align=left;verticalAlign=top;spacingLeft=4;spacingRight=4;overflow=hidden;rotatable=0;points=[[0,0.5],[1,0.5]];portConstraint=eastwest;whiteSpace=wrap;html=1;" parent="MaV1uvMVQuwauOUnLtSE-7" vertex="1">
          <mxGeometry y="318" width="190" height="26" as="geometry" />
        </mxCell>
        <mxCell id="MaV1uvMVQuwauOUnLtSE-53" value="+ ToString(): string" style="text;strokeColor=none;fillColor=none;align=left;verticalAlign=top;spacingLeft=4;spacingRight=4;overflow=hidden;rotatable=0;points=[[0,0.5],[1,0.5]];portConstraint=eastwest;whiteSpace=wrap;html=1;" parent="MaV1uvMVQuwauOUnLtSE-7" vertex="1">
          <mxGeometry y="344" width="190" height="26" as="geometry" />
        </mxCell>
        <mxCell id="MaV1uvMVQuwauOUnLtSE-13" value="&lt;u&gt;IdGenerator&lt;/u&gt;" style="swimlane;fontStyle=1;align=center;verticalAlign=top;childLayout=stackLayout;horizontal=1;startSize=26;horizontalStack=0;resizeParent=1;resizeParentMax=0;resizeLast=0;collapsible=1;marginBottom=0;whiteSpace=wrap;html=1;" parent="WIyWlLk6GJQsqaUBKTNV-1" vertex="1">
          <mxGeometry x="220" y="60" width="160" height="52" as="geometry" />
        </mxCell>
        <mxCell id="MaV1uvMVQuwauOUnLtSE-18" value="+ GetNextId(): int" style="text;strokeColor=none;fillColor=none;align=left;verticalAlign=top;spacingLeft=4;spacingRight=4;overflow=hidden;rotatable=0;points=[[0,0.5],[1,0.5]];portConstraint=eastwest;whiteSpace=wrap;html=1;fontStyle=4" parent="MaV1uvMVQuwauOUnLtSE-13" vertex="1">
          <mxGeometry y="26" width="160" height="26" as="geometry" />
        </mxCell>
        <mxCell id="MaV1uvMVQuwauOUnLtSE-19" value="&lt;u&gt;AppData&lt;/u&gt;" style="swimlane;fontStyle=1;align=center;verticalAlign=top;childLayout=stackLayout;horizontal=1;startSize=26;horizontalStack=0;resizeParent=1;resizeParentMax=0;resizeLast=0;collapsible=1;marginBottom=0;whiteSpace=wrap;html=1;" parent="WIyWlLk6GJQsqaUBKTNV-1" vertex="1">
          <mxGeometry x="210" y="150" width="180" height="104" as="geometry" />
        </mxCell>
        <mxCell id="MaV1uvMVQuwauOUnLtSE-20" value="+ IsExitSaving: bool" style="text;strokeColor=none;fillColor=none;align=left;verticalAlign=top;spacingLeft=4;spacingRight=4;overflow=hidden;rotatable=0;points=[[0,0.5],[1,0.5]];portConstraint=eastwest;whiteSpace=wrap;html=1;fontStyle=4" parent="MaV1uvMVQuwauOUnLtSE-19" vertex="1">
          <mxGeometry y="26" width="180" height="26" as="geometry" />
        </mxCell>
        <mxCell id="MaV1uvMVQuwauOUnLtSE-21" value="+ Items: List&amp;lt;Item&amp;gt;" style="text;strokeColor=none;fillColor=none;align=left;verticalAlign=top;spacingLeft=4;spacingRight=4;overflow=hidden;rotatable=0;points=[[0,0.5],[1,0.5]];portConstraint=eastwest;whiteSpace=wrap;html=1;fontStyle=4" parent="MaV1uvMVQuwauOUnLtSE-19" vertex="1">
          <mxGeometry y="52" width="180" height="26" as="geometry" />
        </mxCell>
        <mxCell id="MaV1uvMVQuwauOUnLtSE-22" value="+ Customers: List&amp;lt;Customer&amp;gt;" style="text;strokeColor=none;fillColor=none;align=left;verticalAlign=top;spacingLeft=4;spacingRight=4;overflow=hidden;rotatable=0;points=[[0,0.5],[1,0.5]];portConstraint=eastwest;whiteSpace=wrap;html=1;fontStyle=4" parent="MaV1uvMVQuwauOUnLtSE-19" vertex="1">
          <mxGeometry y="78" width="180" height="26" as="geometry" />
        </mxCell>
        <mxCell id="MaV1uvMVQuwauOUnLtSE-25" value="&lt;u&gt;ValueValidator&lt;/u&gt;" style="swimlane;fontStyle=1;align=center;verticalAlign=top;childLayout=stackLayout;horizontal=1;startSize=26;horizontalStack=0;resizeParent=1;resizeParentMax=0;resizeLast=0;collapsible=1;marginBottom=0;whiteSpace=wrap;html=1;" parent="WIyWlLk6GJQsqaUBKTNV-1" vertex="1">
          <mxGeometry x="30" y="-240" width="540" height="220" as="geometry" />
        </mxCell>
        <mxCell id="MaV1uvMVQuwauOUnLtSE-59" value="&lt;u&gt;+ AssertOnPositiveValue(in int value, in string propertyName): bool&lt;/u&gt;" style="text;strokeColor=none;fillColor=none;align=left;verticalAlign=top;spacingLeft=4;spacingRight=4;overflow=hidden;rotatable=0;points=[[0,0.5],[1,0.5]];portConstraint=eastwest;whiteSpace=wrap;html=1;" parent="MaV1uvMVQuwauOUnLtSE-25" vertex="1">
          <mxGeometry y="26" width="540" height="24" as="geometry" />
        </mxCell>
        <mxCell id="MaV1uvMVQuwauOUnLtSE-60" value="+ AssertOnPositiveValue(in double value, in string propertyName): bool" style="text;strokeColor=none;fillColor=none;align=left;verticalAlign=top;spacingLeft=4;spacingRight=4;overflow=hidden;rotatable=0;points=[[0,0.5],[1,0.5]];portConstraint=eastwest;whiteSpace=wrap;html=1;fontStyle=4" parent="MaV1uvMVQuwauOUnLtSE-25" vertex="1">
          <mxGeometry y="50" width="540" height="20" as="geometry" />
        </mxCell>
        <mxCell id="MaV1uvMVQuwauOUnLtSE-61" value="+ AssertValueInRange(in int value, in int min, in int max, in string propertyName): bool" style="text;strokeColor=none;fillColor=none;align=left;verticalAlign=top;spacingLeft=4;spacingRight=4;overflow=hidden;rotatable=0;points=[[0,0.5],[1,0.5]];portConstraint=eastwest;whiteSpace=wrap;html=1;fontStyle=4" parent="MaV1uvMVQuwauOUnLtSE-25" vertex="1">
          <mxGeometry y="70" width="540" height="20" as="geometry" />
        </mxCell>
        <mxCell id="MaV1uvMVQuwauOUnLtSE-63" value="+ AssertValueInRange(in double value, in double min, in double max, in string propertyName): bool" style="text;strokeColor=none;fillColor=none;align=left;verticalAlign=top;spacingLeft=4;spacingRight=4;overflow=hidden;rotatable=0;points=[[0,0.5],[1,0.5]];portConstraint=eastwest;whiteSpace=wrap;html=1;fontStyle=4" parent="MaV1uvMVQuwauOUnLtSE-25" vertex="1">
          <mxGeometry y="90" width="540" height="20" as="geometry" />
        </mxCell>
        <mxCell id="MaV1uvMVQuwauOUnLtSE-64" value="+ AssertValueMore(in double firstValue, in double secondValue, in string propertyName): bool" style="text;strokeColor=none;fillColor=none;align=left;verticalAlign=top;spacingLeft=4;spacingRight=4;overflow=hidden;rotatable=0;points=[[0,0.5],[1,0.5]];portConstraint=eastwest;whiteSpace=wrap;html=1;fontStyle=4" parent="MaV1uvMVQuwauOUnLtSE-25" vertex="1">
          <mxGeometry y="110" width="540" height="20" as="geometry" />
        </mxCell>
        <mxCell id="MaV1uvMVQuwauOUnLtSE-66" value="+ AssertValueLess(in double firstValue, in double secondValue, in string propertyName): bool" style="text;strokeColor=none;fillColor=none;align=left;verticalAlign=top;spacingLeft=4;spacingRight=4;overflow=hidden;rotatable=0;points=[[0,0.5],[1,0.5]];portConstraint=eastwest;whiteSpace=wrap;html=1;fontStyle=4" parent="MaV1uvMVQuwauOUnLtSE-25" vertex="1">
          <mxGeometry y="130" width="540" height="20" as="geometry" />
        </mxCell>
        <mxCell id="MaV1uvMVQuwauOUnLtSE-65" value="+ AssertStringContainsOnlyLetters(in string value, in string propertyName): bool" style="text;strokeColor=none;fillColor=none;align=left;verticalAlign=top;spacingLeft=4;spacingRight=4;overflow=hidden;rotatable=0;points=[[0,0.5],[1,0.5]];portConstraint=eastwest;whiteSpace=wrap;html=1;fontStyle=4" parent="MaV1uvMVQuwauOUnLtSE-25" vertex="1">
          <mxGeometry y="150" width="540" height="20" as="geometry" />
        </mxCell>
        <mxCell id="MaV1uvMVQuwauOUnLtSE-62" value="+ AssertStringOnLength(in string value, in int maxLength, in string propertyName): bool" style="text;strokeColor=none;fillColor=none;align=left;verticalAlign=top;spacingLeft=4;spacingRight=4;overflow=hidden;rotatable=0;points=[[0,0.5],[1,0.5]];portConstraint=eastwest;whiteSpace=wrap;html=1;fontStyle=4" parent="MaV1uvMVQuwauOUnLtSE-25" vertex="1">
          <mxGeometry y="170" width="540" height="20" as="geometry" />
        </mxCell>
        <mxCell id="MaV1uvMVQuwauOUnLtSE-30" value="+ InterdictionInputData(in object sender, in KeyPressEventArgs e): void" style="text;strokeColor=none;fillColor=none;align=left;verticalAlign=top;spacingLeft=4;spacingRight=4;overflow=hidden;rotatable=0;points=[[0,0.5],[1,0.5]];portConstraint=eastwest;whiteSpace=wrap;html=1;fontStyle=4" parent="MaV1uvMVQuwauOUnLtSE-25" vertex="1">
          <mxGeometry y="190" width="540" height="30" as="geometry" />
        </mxCell>
        <mxCell id="MaV1uvMVQuwauOUnLtSE-31" value="&lt;u&gt;ProjectSerializer&lt;/u&gt;" style="swimlane;fontStyle=1;align=center;verticalAlign=top;childLayout=stackLayout;horizontal=1;startSize=26;horizontalStack=0;resizeParent=1;resizeParentMax=0;resizeLast=0;collapsible=1;marginBottom=0;whiteSpace=wrap;html=1;" parent="WIyWlLk6GJQsqaUBKTNV-1" vertex="1">
          <mxGeometry x="160" y="370" width="280" height="190" as="geometry" />
        </mxCell>
        <mxCell id="MaV1uvMVQuwauOUnLtSE-32" value="- _autoSaveHandler: FormClosingEventHandler" style="text;strokeColor=none;fillColor=none;align=left;verticalAlign=top;spacingLeft=4;spacingRight=4;overflow=hidden;rotatable=0;points=[[0,0.5],[1,0.5]];portConstraint=eastwest;whiteSpace=wrap;html=1;fontStyle=4" parent="MaV1uvMVQuwauOUnLtSE-31" vertex="1">
          <mxGeometry y="26" width="280" height="26" as="geometry" />
        </mxCell>
        <mxCell id="MaV1uvMVQuwauOUnLtSE-33" value="- _filePath: string" style="text;strokeColor=none;fillColor=none;align=left;verticalAlign=top;spacingLeft=4;spacingRight=4;overflow=hidden;rotatable=0;points=[[0,0.5],[1,0.5]];portConstraint=eastwest;whiteSpace=wrap;html=1;fontStyle=4" parent="MaV1uvMVQuwauOUnLtSE-31" vertex="1">
          <mxGeometry y="52" width="280" height="26" as="geometry" />
        </mxCell>
        <mxCell id="MaV1uvMVQuwauOUnLtSE-35" value="" style="line;strokeWidth=1;fillColor=none;align=left;verticalAlign=middle;spacingTop=-1;spacingLeft=3;spacingRight=3;rotatable=0;labelPosition=right;points=[];portConstraint=eastwest;strokeColor=inherit;" parent="MaV1uvMVQuwauOUnLtSE-31" vertex="1">
          <mxGeometry y="78" width="280" height="8" as="geometry" />
        </mxCell>
        <mxCell id="MaV1uvMVQuwauOUnLtSE-68" value="+ SaveData(in object data): void" style="text;strokeColor=none;fillColor=none;align=left;verticalAlign=top;spacingLeft=4;spacingRight=4;overflow=hidden;rotatable=0;points=[[0,0.5],[1,0.5]];portConstraint=eastwest;whiteSpace=wrap;html=1;fontStyle=4" parent="MaV1uvMVQuwauOUnLtSE-31" vertex="1">
          <mxGeometry y="86" width="280" height="26" as="geometry" />
        </mxCell>
        <mxCell id="MaV1uvMVQuwauOUnLtSE-67" value="+ LoadData(): void" style="text;strokeColor=none;fillColor=none;align=left;verticalAlign=top;spacingLeft=4;spacingRight=4;overflow=hidden;rotatable=0;points=[[0,0.5],[1,0.5]];portConstraint=eastwest;whiteSpace=wrap;html=1;fontStyle=4" parent="MaV1uvMVQuwauOUnLtSE-31" vertex="1">
          <mxGeometry y="112" width="280" height="26" as="geometry" />
        </mxCell>
        <mxCell id="MaV1uvMVQuwauOUnLtSE-36" value="+ EnableAutoSave(in Form mainForm): void" style="text;strokeColor=none;fillColor=none;align=left;verticalAlign=top;spacingLeft=4;spacingRight=4;overflow=hidden;rotatable=0;points=[[0,0.5],[1,0.5]];portConstraint=eastwest;whiteSpace=wrap;html=1;fontStyle=4" parent="MaV1uvMVQuwauOUnLtSE-31" vertex="1">
          <mxGeometry y="138" width="280" height="26" as="geometry" />
        </mxCell>
        <mxCell id="MaV1uvMVQuwauOUnLtSE-70" value="+ DisableAutoSave(in Form mainForm): void" style="text;strokeColor=none;fillColor=none;align=left;verticalAlign=top;spacingLeft=4;spacingRight=4;overflow=hidden;rotatable=0;points=[[0,0.5],[1,0.5]];portConstraint=eastwest;whiteSpace=wrap;html=1;fontStyle=4" parent="MaV1uvMVQuwauOUnLtSE-31" vertex="1">
          <mxGeometry y="164" width="280" height="26" as="geometry" />
        </mxCell>
        <mxCell id="MaV1uvMVQuwauOUnLtSE-76" value="сериализует/десериализует его" style="endArrow=open;endSize=12;dashed=1;html=1;rounded=0;exitX=0.5;exitY=0;exitDx=0;exitDy=0;entryX=0.501;entryY=1.005;entryDx=0;entryDy=0;entryPerimeter=0;" parent="WIyWlLk6GJQsqaUBKTNV-1" source="MaV1uvMVQuwauOUnLtSE-31" target="MaV1uvMVQuwauOUnLtSE-22" edge="1">
          <mxGeometry width="160" relative="1" as="geometry">
            <mxPoint x="180" y="230" as="sourcePoint" />
            <mxPoint x="340" y="230" as="targetPoint" />
          </mxGeometry>
        </mxCell>
        <mxCell id="MaV1uvMVQuwauOUnLtSE-77" value="1" style="endArrow=open;html=1;endSize=12;startArrow=diamondThin;startSize=14;startFill=0;edgeStyle=orthogonalEdgeStyle;align=left;verticalAlign=bottom;rounded=0;entryX=0;entryY=0.5;entryDx=0;entryDy=0;exitX=0.996;exitY=0.036;exitDx=0;exitDy=0;exitPerimeter=0;" parent="WIyWlLk6GJQsqaUBKTNV-1" source="MaV1uvMVQuwauOUnLtSE-0" target="MaV1uvMVQuwauOUnLtSE-22" edge="1">
          <mxGeometry x="-1" y="3" relative="1" as="geometry">
            <mxPoint x="30" y="40" as="sourcePoint" />
            <mxPoint x="190" y="40" as="targetPoint" />
            <Array as="points">
              <mxPoint x="120" y="13" />
              <mxPoint x="120" y="241" />
            </Array>
          </mxGeometry>
        </mxCell>
        <mxCell id="MaV1uvMVQuwauOUnLtSE-78" value="*" style="text;align=center;fontStyle=1;verticalAlign=middle;spacingLeft=3;spacingRight=3;strokeColor=none;rotatable=0;points=[[0,0.5],[1,0.5]];portConstraint=eastwest;html=1;" parent="WIyWlLk6GJQsqaUBKTNV-1" vertex="1">
          <mxGeometry x="144" y="219" width="80" height="26" as="geometry" />
        </mxCell>
        <mxCell id="MaV1uvMVQuwauOUnLtSE-79" value="1" style="endArrow=open;html=1;endSize=12;startArrow=diamondThin;startSize=14;startFill=0;edgeStyle=orthogonalEdgeStyle;align=left;verticalAlign=bottom;rounded=0;entryX=1;entryY=0.5;entryDx=0;entryDy=0;exitX=0.003;exitY=0.03;exitDx=0;exitDy=0;exitPerimeter=0;" parent="WIyWlLk6GJQsqaUBKTNV-1" source="MaV1uvMVQuwauOUnLtSE-7" target="MaV1uvMVQuwauOUnLtSE-21" edge="1">
          <mxGeometry x="-1" y="3" relative="1" as="geometry">
            <mxPoint x="120" y="60" as="sourcePoint" />
            <mxPoint x="300" y="261" as="targetPoint" />
            <Array as="points">
              <mxPoint x="450" y="11" />
              <mxPoint x="450" y="215" />
            </Array>
            <mxPoint as="offset" />
          </mxGeometry>
        </mxCell>
        <mxCell id="MaV1uvMVQuwauOUnLtSE-80" value="*" style="text;align=center;fontStyle=1;verticalAlign=middle;spacingLeft=3;spacingRight=3;strokeColor=none;rotatable=0;points=[[0,0.5],[1,0.5]];portConstraint=eastwest;html=1;" parent="WIyWlLk6GJQsqaUBKTNV-1" vertex="1">
          <mxGeometry x="370" y="193" width="80" height="26" as="geometry" />
        </mxCell>
        <mxCell id="MaV1uvMVQuwauOUnLtSE-81" value="" style="endArrow=block;dashed=1;endFill=0;endSize=12;html=1;rounded=0;exitX=0;exitY=0.5;exitDx=0;exitDy=0;entryX=0;entryY=0.5;entryDx=0;entryDy=0;edgeStyle=orthogonalEdgeStyle;" parent="WIyWlLk6GJQsqaUBKTNV-1" source="MaV1uvMVQuwauOUnLtSE-62" target="MaV1uvMVQuwauOUnLtSE-40" edge="1">
          <mxGeometry width="160" relative="1" as="geometry">
            <mxPoint x="-30" y="-60" as="sourcePoint" />
            <mxPoint x="450" y="90" as="targetPoint" />
            <Array as="points">
              <mxPoint x="-220" y="-60" />
              <mxPoint x="-220" y="143" />
            </Array>
          </mxGeometry>
        </mxCell>
        <mxCell id="MaV1uvMVQuwauOUnLtSE-83" value="" style="endArrow=block;dashed=1;endFill=0;endSize=12;html=1;rounded=0;entryX=0;entryY=0.5;entryDx=0;entryDy=0;edgeStyle=orthogonalEdgeStyle;" parent="WIyWlLk6GJQsqaUBKTNV-1" target="MaV1uvMVQuwauOUnLtSE-6" edge="1">
          <mxGeometry width="160" relative="1" as="geometry">
            <mxPoint x="30" y="-60" as="sourcePoint" />
            <mxPoint x="-20" y="143" as="targetPoint" />
            <Array as="points">
              <mxPoint x="-200" y="-60" />
              <mxPoint x="-200" y="169" />
            </Array>
          </mxGeometry>
        </mxCell>
        <mxCell id="MaV1uvMVQuwauOUnLtSE-84" value="" style="endArrow=block;dashed=1;endFill=0;endSize=12;html=1;rounded=0;exitX=0.999;exitY=0.843;exitDx=0;exitDy=0;exitPerimeter=0;edgeStyle=orthogonalEdgeStyle;entryX=1;entryY=0.5;entryDx=0;entryDy=0;" parent="WIyWlLk6GJQsqaUBKTNV-1" source="MaV1uvMVQuwauOUnLtSE-62" target="MaV1uvMVQuwauOUnLtSE-49" edge="1">
          <mxGeometry width="160" relative="1" as="geometry">
            <mxPoint x="290" y="90" as="sourcePoint" />
            <mxPoint x="450" y="90" as="targetPoint" />
            <Array as="points">
              <mxPoint x="790" y="-53" />
              <mxPoint x="790" y="169" />
            </Array>
          </mxGeometry>
        </mxCell>
        <mxCell id="MaV1uvMVQuwauOUnLtSE-85" value="" style="endArrow=block;dashed=1;endFill=0;endSize=12;html=1;rounded=0;edgeStyle=orthogonalEdgeStyle;entryX=1;entryY=0.5;entryDx=0;entryDy=0;" parent="WIyWlLk6GJQsqaUBKTNV-1" target="MaV1uvMVQuwauOUnLtSE-50" edge="1">
          <mxGeometry width="160" relative="1" as="geometry">
            <mxPoint x="570" y="-50" as="sourcePoint" />
            <mxPoint x="931" y="162" as="targetPoint" />
            <Array as="points">
              <mxPoint x="570" y="-60" />
              <mxPoint x="961" y="-60" />
              <mxPoint x="961" y="195" />
            </Array>
          </mxGeometry>
        </mxCell>
        <mxCell id="MaV1uvMVQuwauOUnLtSE-87" value="" style="endArrow=block;dashed=1;endFill=0;endSize=12;html=1;rounded=0;exitX=1;exitY=0.5;exitDx=0;exitDy=0;edgeStyle=orthogonalEdgeStyle;entryX=1;entryY=0.5;entryDx=0;entryDy=0;" parent="WIyWlLk6GJQsqaUBKTNV-1" source="MaV1uvMVQuwauOUnLtSE-63" target="MaV1uvMVQuwauOUnLtSE-51" edge="1">
          <mxGeometry width="160" relative="1" as="geometry">
            <mxPoint x="700" y="-60" as="sourcePoint" />
            <mxPoint x="891" y="162" as="targetPoint" />
            <Array as="points">
              <mxPoint x="921" y="-140" />
              <mxPoint x="921" y="162" />
              <mxPoint x="920" y="162" />
              <mxPoint x="920" y="221" />
            </Array>
          </mxGeometry>
        </mxCell>
        <mxCell id="MaV1uvMVQuwauOUnLtSE-88" value="" style="endArrow=block;dashed=1;endFill=0;endSize=12;html=1;rounded=0;exitX=1;exitY=0.5;exitDx=0;exitDy=0;entryX=0;entryY=0.5;entryDx=0;entryDy=0;edgeStyle=orthogonalEdgeStyle;" parent="WIyWlLk6GJQsqaUBKTNV-1" source="MaV1uvMVQuwauOUnLtSE-18" target="MaV1uvMVQuwauOUnLtSE-48" edge="1">
          <mxGeometry width="160" relative="1" as="geometry">
            <mxPoint x="50" y="210" as="sourcePoint" />
            <mxPoint x="210" y="210" as="targetPoint" />
          </mxGeometry>
        </mxCell>
        <mxCell id="MaV1uvMVQuwauOUnLtSE-89" value="" style="endArrow=block;dashed=1;endFill=0;endSize=12;html=1;rounded=0;exitX=0;exitY=0.5;exitDx=0;exitDy=0;entryX=1;entryY=0.5;entryDx=0;entryDy=0;edgeStyle=orthogonalEdgeStyle;" parent="WIyWlLk6GJQsqaUBKTNV-1" source="MaV1uvMVQuwauOUnLtSE-18" target="MaV1uvMVQuwauOUnLtSE-39" edge="1">
          <mxGeometry width="160" relative="1" as="geometry">
            <mxPoint x="410" y="100" as="sourcePoint" />
            <mxPoint x="600" y="140" as="targetPoint" />
            <Array as="points">
              <mxPoint x="170" y="103" />
              <mxPoint x="170" y="117" />
            </Array>
          </mxGeometry>
        </mxCell>
        <mxCell id="4C8Gt9x40pI_a9fdSZiz-0" value="ItemFactory" style="swimlane;fontStyle=1;align=center;verticalAlign=top;childLayout=stackLayout;horizontal=1;startSize=26;horizontalStack=0;resizeParent=1;resizeParentMax=0;resizeLast=0;collapsible=1;marginBottom=0;whiteSpace=wrap;html=1;" parent="WIyWlLk6GJQsqaUBKTNV-1" vertex="1">
          <mxGeometry x="490" y="490" width="350" height="166" as="geometry" />
        </mxCell>
        <mxCell id="4C8Gt9x40pI_a9fdSZiz-1" value="- _random: Random" style="text;strokeColor=none;fillColor=none;align=left;verticalAlign=top;spacingLeft=4;spacingRight=4;overflow=hidden;rotatable=0;points=[[0,0.5],[1,0.5]];portConstraint=eastwest;whiteSpace=wrap;html=1;fontStyle=4" parent="4C8Gt9x40pI_a9fdSZiz-0" vertex="1">
          <mxGeometry y="26" width="350" height="26" as="geometry" />
        </mxCell>
        <mxCell id="4C8Gt9x40pI_a9fdSZiz-2" value="- _itemNames: string[]" style="text;strokeColor=none;fillColor=none;align=left;verticalAlign=top;spacingLeft=4;spacingRight=4;overflow=hidden;rotatable=0;points=[[0,0.5],[1,0.5]];portConstraint=eastwest;whiteSpace=wrap;html=1;fontStyle=4" parent="4C8Gt9x40pI_a9fdSZiz-0" vertex="1">
          <mxGeometry y="52" width="350" height="26" as="geometry" />
        </mxCell>
        <mxCell id="4C8Gt9x40pI_a9fdSZiz-3" value="- _itemDescriptions: string[]" style="text;strokeColor=none;fillColor=none;align=left;verticalAlign=top;spacingLeft=4;spacingRight=4;overflow=hidden;rotatable=0;points=[[0,0.5],[1,0.5]];portConstraint=eastwest;whiteSpace=wrap;html=1;fontStyle=4" parent="4C8Gt9x40pI_a9fdSZiz-0" vertex="1">
          <mxGeometry y="78" width="350" height="26" as="geometry" />
        </mxCell>
        <mxCell id="4C8Gt9x40pI_a9fdSZiz-9" value="" style="line;strokeWidth=1;fillColor=none;align=left;verticalAlign=middle;spacingTop=-1;spacingLeft=3;spacingRight=3;rotatable=0;labelPosition=right;points=[];portConstraint=eastwest;strokeColor=inherit;" parent="4C8Gt9x40pI_a9fdSZiz-0" vertex="1">
          <mxGeometry y="104" width="350" height="8" as="geometry" />
        </mxCell>
        <mxCell id="4C8Gt9x40pI_a9fdSZiz-10" value="+ CreateRandomItem(): Item" style="text;strokeColor=none;fillColor=none;align=left;verticalAlign=top;spacingLeft=4;spacingRight=4;overflow=hidden;rotatable=0;points=[[0,0.5],[1,0.5]];portConstraint=eastwest;whiteSpace=wrap;html=1;fontStyle=4" parent="4C8Gt9x40pI_a9fdSZiz-0" vertex="1">
          <mxGeometry y="112" width="350" height="28" as="geometry" />
        </mxCell>
        <mxCell id="4C8Gt9x40pI_a9fdSZiz-12" value="+ CreateItem(in string name, in string info, in double cost): Item" style="text;strokeColor=none;fillColor=none;align=left;verticalAlign=top;spacingLeft=4;spacingRight=4;overflow=hidden;rotatable=0;points=[[0,0.5],[1,0.5]];portConstraint=eastwest;whiteSpace=wrap;html=1;fontStyle=4" parent="4C8Gt9x40pI_a9fdSZiz-0" vertex="1">
          <mxGeometry y="140" width="350" height="26" as="geometry" />
        </mxCell>
        <mxCell id="4C8Gt9x40pI_a9fdSZiz-14" value="CustomerFactory" style="swimlane;fontStyle=1;align=center;verticalAlign=top;childLayout=stackLayout;horizontal=1;startSize=26;horizontalStack=0;resizeParent=1;resizeParentMax=0;resizeLast=0;collapsible=1;marginBottom=0;whiteSpace=wrap;html=1;" parent="WIyWlLk6GJQsqaUBKTNV-1" vertex="1">
          <mxGeometry x="-255" y="430" width="370" height="238" as="geometry" />
        </mxCell>
        <mxCell id="4C8Gt9x40pI_a9fdSZiz-15" value="- _random: Random" style="text;strokeColor=none;fillColor=none;align=left;verticalAlign=top;spacingLeft=4;spacingRight=4;overflow=hidden;rotatable=0;points=[[0,0.5],[1,0.5]];portConstraint=eastwest;whiteSpace=wrap;html=1;fontStyle=4" parent="4C8Gt9x40pI_a9fdSZiz-14" vertex="1">
          <mxGeometry y="26" width="370" height="26" as="geometry" />
        </mxCell>
        <mxCell id="4C8Gt9x40pI_a9fdSZiz-16" value="- _firstNames: string[]" style="text;strokeColor=none;fillColor=none;align=left;verticalAlign=top;spacingLeft=4;spacingRight=4;overflow=hidden;rotatable=0;points=[[0,0.5],[1,0.5]];portConstraint=eastwest;whiteSpace=wrap;html=1;fontStyle=4" parent="4C8Gt9x40pI_a9fdSZiz-14" vertex="1">
          <mxGeometry y="52" width="370" height="26" as="geometry" />
        </mxCell>
        <mxCell id="4C8Gt9x40pI_a9fdSZiz-22" value="- _lastNames: string[]" style="text;strokeColor=none;fillColor=none;align=left;verticalAlign=top;spacingLeft=4;spacingRight=4;overflow=hidden;rotatable=0;points=[[0,0.5],[1,0.5]];portConstraint=eastwest;whiteSpace=wrap;html=1;fontStyle=4" parent="4C8Gt9x40pI_a9fdSZiz-14" vertex="1">
          <mxGeometry y="78" width="370" height="26" as="geometry" />
        </mxCell>
        <mxCell id="4C8Gt9x40pI_a9fdSZiz-23" value="- _middleNames: string[]" style="text;strokeColor=none;fillColor=none;align=left;verticalAlign=top;spacingLeft=4;spacingRight=4;overflow=hidden;rotatable=0;points=[[0,0.5],[1,0.5]];portConstraint=eastwest;whiteSpace=wrap;html=1;fontStyle=4" parent="4C8Gt9x40pI_a9fdSZiz-14" vertex="1">
          <mxGeometry y="104" width="370" height="26" as="geometry" />
        </mxCell>
        <mxCell id="4C8Gt9x40pI_a9fdSZiz-17" value="- _cities: string[]" style="text;strokeColor=none;fillColor=none;align=left;verticalAlign=top;spacingLeft=4;spacingRight=4;overflow=hidden;rotatable=0;points=[[0,0.5],[1,0.5]];portConstraint=eastwest;whiteSpace=wrap;html=1;fontStyle=4" parent="4C8Gt9x40pI_a9fdSZiz-14" vertex="1">
          <mxGeometry y="130" width="370" height="20" as="geometry" />
        </mxCell>
        <mxCell id="4C8Gt9x40pI_a9fdSZiz-24" value="- _streets: string[]" style="text;strokeColor=none;fillColor=none;align=left;verticalAlign=top;spacingLeft=4;spacingRight=4;overflow=hidden;rotatable=0;points=[[0,0.5],[1,0.5]];portConstraint=eastwest;whiteSpace=wrap;html=1;fontStyle=4" parent="4C8Gt9x40pI_a9fdSZiz-14" vertex="1">
          <mxGeometry y="150" width="370" height="26" as="geometry" />
        </mxCell>
        <mxCell id="4C8Gt9x40pI_a9fdSZiz-18" value="" style="line;strokeWidth=1;fillColor=none;align=left;verticalAlign=middle;spacingTop=-1;spacingLeft=3;spacingRight=3;rotatable=0;labelPosition=right;points=[];portConstraint=eastwest;strokeColor=inherit;" parent="4C8Gt9x40pI_a9fdSZiz-14" vertex="1">
          <mxGeometry y="176" width="370" height="8" as="geometry" />
        </mxCell>
        <mxCell id="4C8Gt9x40pI_a9fdSZiz-19" value="+ CreateRandomCustomer(): Customer" style="text;strokeColor=none;fillColor=none;align=left;verticalAlign=top;spacingLeft=4;spacingRight=4;overflow=hidden;rotatable=0;points=[[0,0.5],[1,0.5]];portConstraint=eastwest;whiteSpace=wrap;html=1;fontStyle=4" parent="4C8Gt9x40pI_a9fdSZiz-14" vertex="1">
          <mxGeometry y="184" width="370" height="28" as="geometry" />
        </mxCell>
        <mxCell id="4C8Gt9x40pI_a9fdSZiz-21" value="+ CreateCustomer(in string fullName, in string address): Customer" style="text;strokeColor=none;fillColor=none;align=left;verticalAlign=top;spacingLeft=4;spacingRight=4;overflow=hidden;rotatable=0;points=[[0,0.5],[1,0.5]];portConstraint=eastwest;whiteSpace=wrap;html=1;fontStyle=4" parent="4C8Gt9x40pI_a9fdSZiz-14" vertex="1">
          <mxGeometry y="212" width="370" height="26" as="geometry" />
        </mxCell>
        <mxCell id="4C8Gt9x40pI_a9fdSZiz-25" value="создает экземпляры Customer" style="endArrow=open;endSize=12;dashed=1;html=1;rounded=0;exitX=0.5;exitY=0;exitDx=0;exitDy=0;entryX=0.503;entryY=1.055;entryDx=0;entryDy=0;entryPerimeter=0;" parent="WIyWlLk6GJQsqaUBKTNV-1" source="4C8Gt9x40pI_a9fdSZiz-14" target="MaV1uvMVQuwauOUnLtSE-41" edge="1">
          <mxGeometry width="160" relative="1" as="geometry">
            <mxPoint x="-30" y="516" as="sourcePoint" />
            <mxPoint x="-30" y="400" as="targetPoint" />
          </mxGeometry>
        </mxCell>
        <mxCell id="4C8Gt9x40pI_a9fdSZiz-26" value="создает экземпляры Item" style="endArrow=open;endSize=12;dashed=1;html=1;rounded=0;exitX=0.516;exitY=-0.013;exitDx=0;exitDy=0;entryX=0.518;entryY=1.081;entryDx=0;entryDy=0;entryPerimeter=0;exitPerimeter=0;" parent="WIyWlLk6GJQsqaUBKTNV-1" source="4C8Gt9x40pI_a9fdSZiz-0" target="MaV1uvMVQuwauOUnLtSE-53" edge="1">
          <mxGeometry width="160" relative="1" as="geometry">
            <mxPoint x="600" y="469" as="sourcePoint" />
            <mxPoint x="601" y="390" as="targetPoint" />
          </mxGeometry>
        </mxCell>
      </root>
    </mxGraphModel>
  </diagram>
</mxfile>
